<svg xmlns="http://www.w3.org/2000/svg" viewBox="0 0 1200 760">
  <defs>
    <linearGradient id="sky" x1="0" y1="0" x2="0" y2="1">
      <stop offset="0" stop-color="#8fc9f2"/>
      <stop offset="1" stop-color="#dceca4"/>
    </linearGradient>
    <linearGradient id="road" x1="0" y1="0" x2="1" y2="1">
      <stop offset="0" stop-color="#4c596b"/>
      <stop offset="1" stop-color="#313b4b"/>
    </linearGradient>
  </defs>
  <rect width="1200" height="760" fill="url(#sky)"/>
  <polygon points="330,0 870,0 1150,760 50,760" fill="url(#road)"/>
  <g opacity=".9">
    <rect x="40" y="120" width="220" height="330" rx="16" fill="#d67a5f"/>
    <rect x="930" y="90" width="230" height="360" rx="16" fill="#6e83ad"/>
    <g fill="#c9efff">
      <rect x="75" y="165" width="48" height="66" rx="7"/><rect x="150" y="165" width="48" height="66" rx="7"/>
      <rect x="965" y="135" width="52" height="70" rx="7"/><rect x="1042" y="135" width="52" height="70" rx="7"/>
    </g>
  </g>
  <g fill="#6aa84f">
    <circle cx="300" cy="210" r="58"/><circle cx="910" cy="250" r="62"/><circle cx="250" cy="570" r="70"/>
  </g>
  <g transform="translate(600 510)">
    <g fill="#76b84f">
      <circle cx="-160" cy="35" r="36"/><circle cx="-105" cy="-5" r="42"/><circle cx="-45" cy="26" r="39"/>
      <circle cx="20" cy="-10" r="44"/><circle cx="85" cy="28" r="40"/><circle cx="150" cy="-2" r="45"/>
      <circle cx="-125" cy="70" r="32"/><circle cx="-60" cy="76" r="35"/><circle cx="5" cy="72" r="35"/><circle cx="74" cy="76" r="34"/>
    </g>
    <g fill="#131a22">
      <circle cx="-171" cy="30" r="5"/><circle cx="-149" cy="30" r="5"/><circle cx="-115" cy="-10" r="5"/><circle cx="-93" cy="-10" r="5"/>
      <circle cx="-55" cy="21" r="5"/><circle cx="-33" cy="21" r="5"/><circle cx="8" cy="-15" r="5"/><circle cx="30" cy="-15" r="5"/>
      <circle cx="78" cy="23" r="5"/><circle cx="98" cy="23" r="5"/><circle cx="143" cy="-7" r="5"/><circle cx="165" cy="-7" r="5"/>
    </g>
  </g>
  <g font-family="Arial Black, Arial" font-weight="900" text-anchor="middle">
    <g transform="translate(415 260)">
      <rect x="-100" y="-36" width="200" height="72" rx="18" fill="#1a2a3a" opacity=".95"/>
      <text y="15" font-size="46" fill="#d8ff74">×5</text>
    </g>
    <g transform="translate(785 260)">
      <rect x="-100" y="-36" width="200" height="72" rx="18" fill="#1a2a3a" opacity=".95"/>
      <text y="15" font-size="46" fill="#80d6ff">×3</text>
    </g>
    <g transform="translate(600 700)">
      <rect x="-210" y="-42" width="420" height="82" rx="22" fill="#0e1722" opacity=".96"/>
      <text y="14" font-size="50" fill="#ffffff">ZOMBIE HORDE</text>
    </g>
  </g>
</svg>